<svg width="24" height="24" viewBox="0 0 24 24" fill="none" xmlns="http://www.w3.org/2000/svg">
<path d="M17.4545 5.87995L11.0909 2.24359C10.5284 1.9188 9.83527 1.9188 9.27273 2.24359L2.90909 5.87995C2.34712 6.20441 2.00067 6.80377 2 7.45268V15.7248" stroke="#111111" stroke-width="2" stroke-linecap="round" stroke-linejoin="round"/>
<path fill-rule="evenodd" clip-rule="evenodd" d="M22 19.3068V11.0568C21.9993 10.3207 21.6529 9.64079 21.0909 9.27274H6.54546C5.98349 9.64079 5.63703 10.3207 5.63637 11.0568V19.3068C5.63703 20.043 5.98349 20.7229 6.54546 21.0909H21.0909C21.6529 20.7229 21.9993 20.043 22 19.3068Z" stroke="#111111" stroke-width="2" stroke-linecap="round" stroke-linejoin="round"/>
<path d="M21.0909 11.0909L14.7273 14.7273C14.1647 15.0521 13.4716 15.0521 12.9091 14.7273L6.54546 11.0909" stroke="#111111" stroke-width="2" stroke-linecap="round" stroke-linejoin="round"/>
</svg>
