<svg xmlns="http://www.w3.org/2000/svg" viewBox="0 0 1814.17 1020.47"><defs><style>.cls-1,.cls-4{fill:#1d1d1d;}.cls-2,.cls-3{fill:none;stroke:#1d1d1d;}.cls-2{stroke-miterlimit:10;stroke-width:10px;}.cls-3{stroke-linejoin:round;stroke-width:6px;}.cls-4{font-size:30px;font-family:Ubuntu-Light, Ubuntu;font-weight:300;}.cls-5{letter-spacing:-0.02em;}</style></defs><g id="Calque_2" data-name="Calque 2"><g id="Logo_finale" data-name="Logo finale"><g id="Logo_Noir" data-name="Logo Noir"><path class="cls-1" d="M342.94,283.11q35-28,111.47-28.05,73.41,0,111,30.85a108.18,108.18,0,0,1,27.85,35V211.87q-8.37-4.44-17.43-8.28-54.12-22.77-124.95-22.82a319.92,319.92,0,0,0-79.59,9.68,66.86,66.86,0,0,0-36.83,24.68,77.93,77.93,0,0,0-15.82,47.31,74.94,74.94,0,0,0,8.67,35.77A109.92,109.92,0,0,1,342.94,283.11Z"/><path class="cls-1" d="M593.3,751.64h82.27c1.65-2.3,3.26-4.62,4.8-7q29.11-45,29.1-95.83a171.47,171.47,0,0,0-6-46.26v90.56H620.22a99.48,99.48,0,0,1-10,17.21q-18,25-55,39.32T470,764q-54.33,0-97.77-18.93t-64.12-49.54c-12.71-18.89-21-42.85-25.13-71.46H202.29q1.71,63.87,35,114.49T329,814.4q58.41,25.22,145,25.21,66.12,0,119.36-23.47Z"/><path class="cls-1" d="M317.05,495q35.2,18.68,123,39.79T553.49,565.8q24,9.13,39.81,20.84V490c-18.9-7.66-46.78-16.14-83.3-25.38-2.56-.63-5.21-1.28-7.91-2-13.13-3.26-26.94-6.58-42.23-10-26.8-6.06-49.47-12.07-68.29-18-27.17-8-48.79-15.82-63.36-23.27q-49-24.75-73-61.36a142.61,142.61,0,0,1-19.49-46,158.6,158.6,0,0,0-9,52.34q0,43.89,22.36,79.33T317.05,495Z"/><path class="cls-1" d="M993.44,685.7,899.66,295.46c-19.71-3.21-44.88-4.84-75.26-4.84h-7.66L938.33,734c14.14-6.32,25.92-14.15,35.16-23.38A151.75,151.75,0,0,0,993.44,685.7Z"/><path class="cls-1" d="M1021.69,807.62c-16.16,10.83-34.88,19.78-55.84,26.77l1.46,5.32h63.13l-7.86-32.7Z"/><polygon class="cls-1" points="1527.1 202.55 1428.05 614.77 1462.3 748 1611.88 202.55 1527.1 202.55"/><path class="cls-1" d="M1149.86,202.55,1111,340q4.9,10.51,9.13,21.62c14.41,38.23,22.81,81.46,25.1,128.79l37.68-136.2c10.56-37.81,16.88-61.43,19.34-72.06l153.67,557.56h62.45L1254.58,202.55Z"/><path class="cls-1" d="M1133,517.68q0,72.57-17,128.62t-43.45,92.8q-26.51,36.67-58,57.8t-76,31.94q-44.57,10.85-102.34,10.87H606.2V764.54H826.6q63,0,98.86-11.77t57.15-33q30-30,46.71-80.66t16.73-122.74q0-100-32.82-153.67t-79.75-71.91Q899.6,277.72,824.4,277.72H690.53V680.21H606.2V202.55H825.69q74.31,0,113.43,9.12,54.79,12.6,93.45,45.61Q1083,299.91,1108,366.17T1133,517.68Z"/><path class="cls-1" d="M1785.83,10a18.37,18.37,0,0,1,18.34,18.35V992.13a18.36,18.36,0,0,1-18.34,18.34H28.35A18.37,18.37,0,0,1,10,992.13V28.35A18.37,18.37,0,0,1,28.35,10H1785.83m0-10H28.35A28.35,28.35,0,0,0,0,28.35V992.13a28.34,28.34,0,0,0,28.35,28.34H1785.83a28.34,28.34,0,0,0,28.34-28.34V28.35A28.34,28.34,0,0,0,1785.83,0Z"/><line class="cls-2" y1="72.05" x2="1814.17" y2="72.05"/><path class="cls-3" d="M35.06,70.1H45.65A14.18,14.18,0,0,0,59.83,55.92V40.82A14.17,14.17,0,0,1,74,26.64H446a14.17,14.17,0,0,1,14.17,14.18v15.1A14.18,14.18,0,0,0,474.36,70.1h31.22"/><text class="cls-4" transform="translate(93.01 59.99)">sven-developpeu<tspan class="cls-5" x="227.57" y="0">r</tspan><tspan x="238.16" y="0">-web.fr </tspan></text></g></g></g></svg>