<svg xmlns="http://www.w3.org/2000/svg" viewBox="0 0 1409.59 658.94"><defs><style>.cls-1{fill:#1d1d1d;}</style></defs><g id="Calque_2" data-name="Calque 2"><g id="Logo_finale" data-name="Logo finale"><g id="Logo_Noir_Simplifier" data-name="Logo Noir Simplifier"><path class="cls-1" d="M140.65,102.35q35-28.06,111.47-28.06,73.41,0,111,30.85A108.33,108.33,0,0,1,391,140.2V31.1c-5.58-3-11.38-5.73-17.43-8.28Q319.46.07,248.63,0A319.92,319.92,0,0,0,169,9.68a66.86,66.86,0,0,0-36.83,24.68,78,78,0,0,0-15.82,47.31,74.87,74.87,0,0,0,8.67,35.78A109.38,109.38,0,0,1,140.65,102.35Z"/><path class="cls-1" d="M391,570.87h82.27c1.65-2.29,3.26-4.61,4.8-7q29.12-45,29.1-95.84a171.53,171.53,0,0,0-6-46.26v90.56H417.93a98.74,98.74,0,0,1-10,17.21q-18,25-55,39.33t-85.2,14.34q-54.33,0-97.77-18.92t-64.12-49.55c-12.71-18.88-21-42.84-25.13-71.46H0q1.71,63.87,35,114.5t91.72,75.85q58.4,25.2,145,25.2,66.12,0,119.36-23.47Z"/><path class="cls-1" d="M114.76,314.18q35.2,18.69,123,39.79T351.2,385q24,9.12,39.81,20.83V309.2c-18.9-7.66-46.78-16.14-83.3-25.37l-7.91-2c-13.13-3.26-26.94-6.58-42.23-10-26.8-6.05-49.47-12.07-68.29-18-27.17-8-48.79-15.82-63.36-23.28q-49-24.75-73-61.36a142.51,142.51,0,0,1-19.49-46,158.66,158.66,0,0,0-9,52.35q0,43.88,22.36,79.32T114.76,314.18Z"/><path class="cls-1" d="M791.15,504.94,697.37,114.69c-19.71-3.21-44.88-4.84-75.26-4.84h-7.66L736,553.26c14.14-6.33,25.92-14.15,35.16-23.39A152.09,152.09,0,0,0,791.15,504.94Z"/><path class="cls-1" d="M819.4,626.86c-16.16,10.82-34.88,19.78-55.84,26.77l1.46,5.31h63.13l-7.86-32.7Z"/><polygon class="cls-1" points="1324.81 21.78 1225.76 434 1260.01 567.23 1409.59 21.78 1324.81 21.78"/><path class="cls-1" d="M947.57,21.78,908.66,159.23c3.27,7,6.33,14.21,9.13,21.63,14.41,38.22,22.81,81.45,25.1,128.79l37.68-136.2c10.56-37.82,16.88-61.43,19.34-72.07l153.67,557.56H1216L1052.29,21.78Z"/><path class="cls-1" d="M930.66,336.92q0,72.56-17,128.61t-43.45,92.81q-26.5,36.67-58,57.79t-76,32q-44.57,10.84-102.35,10.86H403.91V583.77h220.4q63,0,98.86-11.77t57.15-33q30-30,46.71-80.66t16.73-122.75q0-100-32.82-153.67T731.19,110Q697.31,96.95,622.11,97H488.24V499.44H403.91V21.78H623.4q74.31,0,113.43,9.13,54.79,12.6,93.45,45.6,50.47,42.65,75.44,108.9T930.66,336.92Z"/></g></g></g></svg>