<?xml version="1.0" encoding="utf-8"?>
<!-- Generator: Adobe Illustrator 24.0.2, SVG Export Plug-In . SVG Version: 6.00 Build 0)  -->
<svg version="1.1" id="Calque_1" xmlns="http://www.w3.org/2000/svg" xmlns:xlink="http://www.w3.org/1999/xlink" x="0px" y="0px"
	 viewBox="0 0 62.4 36.1" style="enable-background:new 0 0 62.4 36.1;" xml:space="preserve">
<style type="text/css">
	.st0{fill:#FFFFFF;stroke:#000000;stroke-width:0.25;stroke-miterlimit:10;}
	.st1{fill:none;stroke:#000000;stroke-width:0.25;stroke-miterlimit:10;}
	.st2{fill:#3DC9F4;}
	.st3{stroke:#000000;stroke-width:0.75;stroke-miterlimit:10;}
</style>
<g>
	<path class="st0" d="M31.2,3.4C22.6-1.2,6.6-1.9,0.1,7.5l9.9,24.8c4.3-1.7,14.9-1.8,16.7,2.3c3.5,2,6.4,1.4,8.9,0
		c2.1-4.1,12.4-4.1,16.7-2.3l9.9-24.8C55.8-1.9,39.8-1.2,31.2,3.4"/>
	<polyline class="st0" points="10.1,32.3 11,28.3 1.7,5.7 	"/>
	<path class="st0" d="M11,28.3c0,0,15.5-3.6,20.2,4.5"/>
	<line class="st1" x1="31.2" y1="26.6" x2="31.2" y2="32.8"/>
	<line class="st1" x1="31.1" y1="3.2" x2="31.1" y2="10.1"/>
	<polyline class="st0" points="52.4,32.3 51.4,28.3 60.8,5.7 	"/>
	<path class="st0" d="M51.4,28.3c0,0-15.5-3.6-20.2,4.5"/>
	<path class="st0" d="M31.2,32.8"/>
</g>
<g>
	<g>
		<path d="M25.8,27.2c-2,0-3.8-0.8-5.2-2.2c-1.8-1.7-1.8-4.7-0.1-6.9c0.7-0.9,1.6-1.6,2.9-2.4c1-0.5,1.9-1.5,2.5-2.8
			c0.7-1.5,1.9-2.4,3.8-2.5c0.2,0,0.4,0,0.6,0c1.4,0,2.5,0.3,3.5,0.9c0.5,0.3,0.8,0.7,1.3,1.2c0.2,0.2,0.4,0.5,0.5,0.8
			c0.1,0.1,0.2,0.3,0.2,0.4c0.6,1,1.4,1.7,2.4,2.2c0.9,0.5,1.6,1,2.2,1.4c1.7,1.4,2.2,3.5,1.5,5.6c-0.8,2.2-2.5,3.4-5.5,3.8
			c-0.2,0-0.4,0-0.7,0c-1,0-2-0.3-2.8-0.5c-0.6-0.2-1.2-0.3-1.8-0.3c-0.7,0-1.4,0.1-2,0.4l-0.1,0c-1,0.3-1.9,0.7-3,0.7L25.8,27.2z"
			/>
		<path d="M30.2,10.6L30.2,10.6c1.3,0,2.4,0.3,3.4,0.9c0.5,0.3,0.8,0.7,1.3,1.2c0.2,0.2,0.4,0.5,0.5,0.8c0.1,0.1,0.2,0.3,0.2,0.4
			c0.6,1,1.4,1.7,2.4,2.3c0.9,0.5,1.6,1,2.2,1.4c1.7,1.4,2.2,3.4,1.4,5.5c-0.8,2.2-2.4,3.3-5.3,3.7c-0.2,0-0.4,0-0.6,0
			c-0.9,0-1.8-0.2-2.8-0.5C32.2,26.1,31.6,26,31,26c-0.7,0-1.4,0.1-2.1,0.4l-0.1,0c-0.9,0.3-1.9,0.7-2.9,0.7h-0.1
			c-2,0-3.7-0.8-5.1-2.1c-1.7-1.6-1.8-4.6-0.1-6.7c0.7-0.9,1.5-1.6,2.8-2.3c1-0.5,2-1.5,2.6-2.9c0.6-1.5,1.9-2.3,3.7-2.4
			C29.8,10.6,30,10.6,30.2,10.6 M30.2,10.4c-0.2,0-0.4,0-0.6,0c-1.8,0.1-3.2,0.8-3.9,2.5c-0.6,1.3-1.5,2.3-2.5,2.8
			c-1.3,0.8-2.2,1.5-2.9,2.4c-1.7,2.2-1.7,5.3,0.1,7c1.5,1.4,3.3,2.1,5.3,2.2c0,0,0.1,0,0.1,0c1.1,0,2.1-0.4,3.1-0.7
			c0.7-0.2,1.3-0.4,2-0.4c0.6,0,1.2,0.1,1.8,0.3c0.9,0.3,1.9,0.5,2.9,0.5c0.2,0,0.5,0,0.7,0c2.5-0.3,4.6-1.3,5.5-3.9
			c0.8-2.2,0.3-4.3-1.5-5.7c-0.7-0.6-1.4-1-2.2-1.5c-1-0.5-1.7-1.3-2.3-2.2c-0.3-0.4-0.5-0.8-0.8-1.2c-0.4-0.5-0.8-0.9-1.3-1.2
			C32.6,10.6,31.4,10.4,30.2,10.4L30.2,10.4z"/>
	</g>
</g>
<g>
	<path class="st2" d="M32.2,18.5c-0.2-0.1-0.3-0.2-0.3-0.4c-0.1-0.2-0.1-0.4-0.2-0.5c0,0,0-0.1,0-0.1c0,0,0,0,0,0c0,0.1,0,0.1,0,0.2
		c0,0.2,0,0.4,0,0.6c0,0.1,0,0.2,0,0.3c0,0,0,0,0,0c0-0.1-0.1-0.1-0.1-0.2c-0.1-0.1-0.1-0.2-0.2-0.3c0,0-0.1-0.1-0.1-0.1
		c0,0-0.1,0.1-0.1,0.2c-0.1,0.2-0.1,0.5-0.2,0.7c0,0.2-0.1,0.3-0.1,0.5c0,0,0,0,0,0c-0.1-0.5-0.3-1-0.5-1.5
		c-0.1,0.1-0.2,0.3-0.3,0.5c-0.1-0.2-0.1-0.5-0.2-0.7c0,0,0,0,0,0c-0.1,0.1-0.2,0.3-0.2,0.4c0,0.1-0.1,0.3-0.1,0.5
		c0-0.1-0.1-0.1-0.1-0.2c0-0.1-0.1-0.3-0.1-0.5c0-0.1-0.1-0.3-0.1-0.4c-0.1-0.1-0.2-0.3-0.3-0.4c-0.1-0.2-0.3-0.4-0.4-0.5
		c-0.2-0.2-0.4-0.4-0.6-0.6c-0.3-0.3-0.6-0.5-0.9-0.7c-0.1-0.1-0.2-0.1-0.4-0.2c-0.1-0.1-0.3,0-0.3,0.1c-0.1,0.1-0.1,0.3-0.1,0.5
		c0,0.3,0,0.6,0.1,0.9c0.1,0.3,0.1,0.6,0.2,0.9c0.1,0.4,0.2,0.8,0.2,1.3c0,0.3-0.1,0.6-0.2,0.9c-0.1,0.1-0.2,0.2-0.2,0.3
		c0,0,0,0,0,0c0-0.2,0-0.3,0.1-0.5c0.1-0.4,0.1-0.9,0-1.3c-0.1-0.3-0.2-0.7-0.2-1c-0.1-0.5-0.1-0.9-0.2-1.4c0-0.3,0-0.5,0.1-0.8
		c0.2-0.3,0.4-0.4,0.8-0.3c0.3,0.1,0.5,0.2,0.7,0.4c0.3,0.2,0.5,0.4,0.7,0.6c0.4,0.4,0.8,0.7,1.4,0.8c0,0,0,0,0,0
		c0.2,0.1,0.4,0.1,0.5,0.1c0.3,0,0.6-0.1,1-0.1c0.2,0,0.4,0,0.6,0c0.2,0,0.5,0.1,0.7,0.1c0.1,0,0.3,0,0.4,0c0.5,0,0.9-0.3,1.2-0.6
		c0.3-0.3,0.6-0.5,0.9-0.8c0.2-0.2,0.5-0.4,0.8-0.5c0.1-0.1,0.3-0.1,0.4-0.1c0.2,0,0.3,0.1,0.4,0.2s0.1,0.3,0.1,0.5
		c0.1,0.4,0,0.9-0.1,1.3c-0.1,0.4-0.2,0.8-0.2,1.2c-0.1,0.4-0.1,0.8-0.2,1.1c0,0.4,0,0.7,0.1,1c0,0,0,0.1,0,0.1c0,0,0,0,0,0
		c0,0,0,0,0,0c-0.3-0.2-0.4-0.4-0.5-0.7c-0.1-0.3-0.1-0.5,0-0.8c0-0.2,0.1-0.4,0.2-0.6c0.1-0.4,0.2-0.7,0.3-1.1
		c0.1-0.4,0.2-0.7,0.2-1.1c0-0.1,0-0.3,0-0.4c0-0.2-0.2-0.3-0.4-0.3c-0.3,0-0.5,0.2-0.7,0.3c-0.3,0.2-0.5,0.4-0.7,0.6
		c-0.3,0.2-0.5,0.5-0.8,0.7c-0.1,0.1-0.2,0.2-0.2,0.3c-0.1,0.2-0.3,0.3-0.5,0.5c-0.3,0.2-0.4,0.4-0.4,0.8
		C32.2,18.3,32.2,18.4,32.2,18.5z"/>
	<path class="st2" d="M29,25.1c0.1,0,0.2,0,0.3,0c0.4,0,0.7,0,1-0.1c0.1,0,0.2-0.1,0.2-0.1c0.1-0.1,0.2-0.3,0.1-0.4
		s-0.2-0.3-0.3-0.4c-0.1-0.1-0.1-0.2-0.2-0.3c0,0,0-0.1,0-0.1c0.1,0,0.1-0.1,0.2-0.1c0.3-0.1,0.6-0.1,0.9,0c0.1,0,0.2,0,0.3,0.1
		c0.1,0,0.1,0.2,0,0.3c-0.1,0.2-0.3,0.3-0.4,0.5c0,0.1-0.1,0.1-0.1,0.2c0,0.1,0,0.2,0.1,0.3c0.2,0.1,0.4,0.2,0.6,0.2
		c0.2,0,0.5,0,0.7-0.1c0,0,0,0,0,0c0,0.2-0.5,0.3-0.8,0.3c-0.3,0-0.6-0.1-0.8-0.3c-0.4,0.3-0.7,0.4-1.2,0.3
		C29.3,25.4,29.1,25.3,29,25.1z"/>
	<path class="st2" d="M27.7,21.1c0.1,0,0.2-0.1,0.3-0.1c0.4-0.1,0.7,0,1.1,0.1c0.3,0.1,0.5,0.3,0.5,0.6c0.1,0.2,0.1,0.3,0.1,0.5
		c-0.1,0-0.2,0.1-0.4,0.1c-0.3,0.1-0.6,0.2-0.9,0.1c-0.3-0.1-0.5-0.2-0.6-0.5c-0.1-0.1-0.1-0.2-0.2-0.3c0,0,0,0,0,0c0,0,0,0,0.1,0.1
		c0.1,0.2,0.3,0.3,0.5,0.4c0.3,0.1,0.5,0.1,0.8,0c0.1,0,0.2-0.1,0.3-0.2c0.1,0,0.1-0.1,0-0.2c-0.1-0.2-0.2-0.3-0.4-0.5
		c-0.3-0.2-0.5-0.2-0.8-0.2C28,21.2,27.8,21.2,27.7,21.1C27.7,21.2,27.7,21.2,27.7,21.1z"/>
	<path class="st2" d="M33.7,21.6c0,0.1-0.1,0.3-0.2,0.4c-0.1,0.2-0.3,0.3-0.5,0.4c-0.2,0.1-0.5,0.1-0.7,0c-0.1,0-0.3-0.1-0.4-0.2
		c-0.1,0-0.2-0.1-0.3,0c0-0.1,0-0.2,0-0.2c0.1-0.3,0.2-0.7,0.6-0.8c0.5-0.3,0.9-0.3,1.4-0.2c0,0,0,0,0.1,0c0,0,0,0,0,0
		c0,0-0.1,0-0.1,0c-0.3,0-0.5,0-0.8,0.1c-0.2,0-0.3,0.1-0.5,0.2c-0.2,0.1-0.3,0.3-0.3,0.5c0,0.1,0,0.1,0,0.2
		c0.2,0.2,0.4,0.3,0.7,0.3c0.3,0,0.5-0.1,0.7-0.3C33.6,21.8,33.7,21.7,33.7,21.6z"/>
	<path class="st2" d="M27.4,21.2c0,0-0.1,0-0.1,0.1c-0.2,0-0.4,0-0.6,0c-0.1,0-0.3,0-0.5,0c-0.1,0-0.1,0-0.1,0.1
		c0.1,0.1,0.2,0.3,0.3,0.4c0,0-0.1,0-0.1-0.1c-0.1-0.1-0.2-0.2-0.3-0.3c-0.1,0-0.1-0.1-0.2-0.1c-0.1-0.1-0.2-0.1-0.3-0.2
		c0,0,0,0,0-0.1c0-0.2,0.1-0.4,0.1-0.5c0-0.1,0-0.1,0.1,0c0.2,0.1,0.5,0.3,0.7,0.4c0.2,0.1,0.4,0.1,0.5,0.2
		C27.1,21.1,27.3,21.2,27.4,21.2C27.4,21.2,27.4,21.2,27.4,21.2z"/>
	<path class="st2" d="M35.2,21.7c0.1-0.2,0.2-0.3,0.3-0.6c-0.1,0-0.2,0-0.3,0c-0.2,0-0.4,0-0.6,0c-0.1,0-0.2,0-0.3,0
		c0,0-0.1,0-0.1,0c0,0,0,0,0,0c0.1,0,0.1,0,0.2,0c0.5,0,0.9-0.3,1.3-0.5c0,0,0.1-0.1,0.2-0.1c0,0,0.1,0,0.1,0
		c0.1,0.2,0.1,0.4,0.1,0.6c0,0,0,0,0,0c-0.1,0.1-0.2,0.2-0.3,0.2c-0.1,0-0.2,0.1-0.2,0.2C35.4,21.6,35.3,21.7,35.2,21.7
		C35.2,21.7,35.2,21.7,35.2,21.7z"/>
	<path class="st2" d="M25.2,25.8c0.1,0,0.1-0.1,0.2-0.1c0.4-0.2,0.9-0.4,1.3-0.6c0.2-0.1,0.4-0.2,0.6-0.2c0.2-0.1,0.3-0.1,0.5-0.2
		c0.3-0.1,0.6-0.2,0.9-0.2c0.3-0.1,0.5-0.1,0.8-0.2c0,0,0.1,0,0.1,0s0.1,0,0.1,0.1c0,0,0,0.1,0,0.1c-0.1,0-0.1,0.1-0.2,0.1
		c-0.4,0.1-0.8,0.2-1.2,0.3c-0.6,0.1-1.1,0.3-1.7,0.5C26,25.5,25.6,25.7,25.2,25.8C25.2,25.8,25.2,25.8,25.2,25.8
		C25.2,25.8,25.2,25.8,25.2,25.8z"/>
	<path class="st2" d="M36.5,25.3c-0.2,0-0.3-0.1-0.5-0.1c-0.5-0.1-1-0.2-1.4-0.3c-0.3-0.1-0.7-0.1-1.1-0.2c-0.2,0-0.4-0.1-0.6-0.1
		c-0.3,0-0.5,0-0.8,0c0,0-0.1,0-0.1,0c0,0-0.1,0-0.1-0.1c0,0,0-0.1,0.1-0.1c0.1,0,0.2,0,0.3,0c0.4,0,0.8,0.1,1.2,0.2
		c0.3,0,0.6,0.1,0.9,0.1c0.6,0.1,1.1,0.2,1.7,0.4C36.2,25.2,36.3,25.2,36.5,25.3C36.5,25.3,36.5,25.3,36.5,25.3
		C36.5,25.3,36.5,25.3,36.5,25.3z"/>
	<path class="st2" d="M24.7,23.8c0.1,0,0.2-0.1,0.4-0.1c0.4-0.1,0.8-0.1,1.2-0.1c0.6,0,1.2,0,1.8,0c0.3,0,0.6,0.1,0.9,0.1
		c0,0,0.1,0,0.1,0s0,0.1,0,0.1c0,0,0,0.1-0.1,0.1c0,0-0.1,0-0.1,0c-0.4,0-0.8-0.1-1.2-0.1c-0.4,0-0.7,0-1.1,0c-0.2,0-0.5,0-0.7,0
		c-0.3,0-0.5,0-0.8,0.1C24.9,23.8,24.8,23.8,24.7,23.8C24.7,23.8,24.7,23.8,24.7,23.8z"/>
	<path class="st2" d="M36.4,23.7c-0.1,0-0.3,0-0.4,0c-0.2,0-0.5,0-0.7,0c-0.4,0-0.8,0-1.2,0.1c-0.3,0-0.6,0.1-0.9,0.1
		c-0.3,0-0.5,0.1-0.8,0.2c0,0-0.1,0-0.1,0c-0.1,0-0.1,0-0.1-0.1c0-0.1,0-0.1,0.1-0.1c0.1,0,0.2-0.1,0.4-0.1c0.3,0,0.6-0.1,0.9-0.1
		c0.2,0,0.5,0,0.7-0.1c0.5-0.1,1,0,1.5,0C35.9,23.5,36.2,23.6,36.4,23.7C36.4,23.6,36.4,23.6,36.4,23.7
		C36.4,23.6,36.4,23.6,36.4,23.7z"/>
	<path class="st2" d="M24.1,24.6c0.1,0,0.2-0.1,0.3-0.1c0.4-0.1,0.8-0.2,1.1-0.3c0.5-0.1,1.1-0.2,1.7-0.2c0.3,0,0.6,0,0.8,0
		c0.1,0,0.2,0,0.3,0c0,0,0.1,0,0.1,0.1c0,0.1,0,0.1-0.1,0.1c-0.2,0-0.4,0-0.5,0c-0.2,0-0.3,0-0.5,0c-0.3,0-0.6,0-1,0.1
		c-0.5,0-0.9,0.1-1.4,0.2C24.7,24.5,24.4,24.5,24.1,24.6C24.1,24.6,24.1,24.6,24.1,24.6C24.1,24.6,24.1,24.6,24.1,24.6z"/>
	<path class="st2" d="M24.6,25.2c0,0,0.1-0.1,0.2-0.1c0.2-0.1,0.4-0.2,0.6-0.2c0.3-0.1,0.6-0.2,0.9-0.3c0.6-0.1,1.2-0.3,1.8-0.3
		c0.1,0,0.1,0,0.2,0c0,0,0.1,0,0.1,0.1c0,0,0,0.1-0.1,0.1c-0.1,0-0.1,0-0.2,0c-0.4,0-0.7,0-1,0.1c-0.4,0.1-0.7,0.1-1.1,0.2
		c-0.2,0-0.4,0.1-0.6,0.2C25.1,25.1,24.9,25.2,24.6,25.2C24.7,25.2,24.7,25.2,24.6,25.2z"/>
	<path class="st2" d="M29.3,19c0.1,0.1,0.1,0.2,0.1,0.2c0,0.2,0,0.3,0,0.5c-0.1,0.4,0,0.8,0.1,1.2c0,0.1,0.1,0.1,0.1,0.2
		c0,0,0,0,0,0c-0.2-0.1-0.4-0.2-0.5-0.4c-0.1-0.3-0.2-0.6,0-0.8C29.2,19.6,29.2,19.4,29.3,19C29.3,19.1,29.3,19.1,29.3,19z"/>
	<path class="st2" d="M36.3,24.6c-0.1,0-0.3,0-0.4-0.1c-0.3-0.1-0.7-0.1-1-0.2c-0.4,0-0.9-0.1-1.3-0.1c-0.2,0-0.4,0-0.7,0
		c-0.1,0-0.2,0-0.3,0c0,0,0,0-0.1-0.1c0,0,0-0.1,0.1-0.1c0.1,0,0.2,0,0.3,0c0.5,0,1,0,1.5,0.1c0.4,0,0.8,0.1,1.2,0.2
		C35.9,24.4,36.1,24.5,36.3,24.6C36.4,24.5,36.4,24.6,36.3,24.6z"/>
	<path class="st2" d="M36,26.1c-0.2-0.1-0.4-0.2-0.6-0.3c-0.3-0.1-0.5-0.3-0.8-0.4c-0.4-0.2-0.8-0.3-1.3-0.4c-0.2,0-0.5-0.1-0.7-0.2
		c-0.1,0-0.1,0-0.1-0.1c0-0.1,0.1-0.1,0.2,0c0.4,0,0.7,0.2,1,0.3c0.4,0.1,0.7,0.3,1.1,0.4c0.3,0.1,0.6,0.3,0.9,0.5
		C35.9,25.9,36,26,36,26.1C36,26.1,36,26.1,36,26.1z"/>
	<path class="st2" d="M31.7,21c0-0.1,0.1-0.2,0.1-0.3c0.1-0.2,0.1-0.4,0.1-0.6c0-0.3,0.1-0.7,0.3-1c0,0,0-0.1,0.1-0.1
		c0.1,0.4,0.1,0.7,0,1.1C32.2,20.5,31.8,21,31.7,21z"/>
	<path class="st2" d="M30.3,20.7c-0.1-0.2-0.2-0.3-0.2-0.5c0-0.2-0.1-0.3-0.1-0.5c0-0.3-0.1-0.5-0.3-0.8c0-0.1-0.1-0.2-0.1-0.3
		c0.1,0,0.2,0.1,0.3,0.1c0.4,0.3,0.4,0.6,0.5,1C30.4,20.1,30.3,20.4,30.3,20.7C30.3,20.7,30.3,20.7,30.3,20.7z"/>
	<path class="st2" d="M27.2,23c-0.1-0.1-0.3-0.1-0.4-0.2c-0.2-0.1-0.4-0.1-0.6-0.2c-0.1,0-0.2,0-0.4-0.1c-0.1-0.1-0.2-0.2-0.3-0.3
		c0-0.2-0.1-0.3-0.1-0.5c0,0,0,0,0,0c0.1,0.1,0.1,0.1,0.2,0.2c0.2,0.3,0.5,0.5,0.8,0.6C26.8,22.6,27,22.8,27.2,23
		C27.2,23,27.2,23,27.2,23z"/>
	<path class="st2" d="M36.1,21.7c0,0.1,0,0.2,0,0.3c0,0.1-0.1,0.3-0.1,0.4c0,0-0.1,0.1-0.1,0.1c-0.2,0-0.3,0.1-0.5,0.1
		s-0.3,0.1-0.5,0.2c-0.1,0.1-0.2,0.1-0.3,0.2c0,0,0,0-0.1,0c0,0,0-0.1,0.1-0.1c0.2-0.2,0.4-0.4,0.6-0.4c0.4-0.1,0.6-0.3,0.8-0.6
		C36,21.7,36,21.7,36.1,21.7C36.1,21.6,36.1,21.7,36.1,21.7z"/>
	<path class="st2" d="M27.3,20c0,0,0.1,0,0.1,0c0.3,0.1,0.5,0.2,0.8,0.3c0.2,0,0.4,0.1,0.5,0.3c0,0,0,0.1,0.1,0.2
		c-0.1,0-0.1,0-0.1,0c-0.2,0-0.4,0-0.6-0.1C27.7,20.6,27.5,20.4,27.3,20C27.3,20.1,27.3,20.1,27.3,20z"/>
	<path class="st2" d="M31.8,18.6c0,0.1-0.1,0.1-0.1,0.2c-0.2,0.3-0.2,0.5-0.3,0.8c0,0.2-0.1,0.4-0.2,0.7c0,0.1-0.1,0.2-0.1,0.3
		c0,0,0,0,0,0c0,0,0-0.1,0-0.1c0-0.2,0-0.4,0-0.6c0-0.3,0.1-0.6,0.3-0.9C31.5,18.9,31.7,18.8,31.8,18.6
		C31.8,18.6,31.8,18.6,31.8,18.6C31.8,18.6,31.8,18.6,31.8,18.6z"/>
	<path class="st2" d="M34.1,19.9c-0.1,0.2-0.2,0.3-0.3,0.4c-0.2,0.1-0.4,0.1-0.6,0.2c-0.2,0-0.3,0.1-0.5,0.2c-0.1,0-0.1,0.1-0.2,0.1
		c0,0,0-0.1,0.1-0.1c0.2-0.3,0.5-0.4,0.8-0.5c0.2,0,0.3-0.1,0.5-0.1C34,20,34,19.9,34.1,19.9z"/>
	<path class="st2" d="M27.5,22.4c-0.1,0-0.3,0-0.4-0.1c-0.1-0.1-0.2-0.1-0.2-0.2c-0.1-0.2-0.2-0.3-0.2-0.5c0,0,0,0,0,0c0,0,0,0,0,0
		c0.1,0,0.2,0.1,0.3,0.2c0.1,0.1,0.1,0.2,0.2,0.3C27.2,22.2,27.3,22.3,27.5,22.4C27.5,22.4,27.5,22.4,27.5,22.4z"/>
	<path class="st2" d="M34.1,22.3c0,0,0.1-0.1,0.2-0.1c0.1-0.2,0.2-0.3,0.3-0.5c0.1-0.1,0.2-0.2,0.3-0.3c0,0,0,0,0.1,0c0,0,0,0,0,0
		c0,0.1-0.1,0.2-0.1,0.3c-0.1,0.2-0.2,0.3-0.3,0.5C34.4,22.3,34.3,22.4,34.1,22.3C34.1,22.3,34.1,22.3,34.1,22.3z"/>
	<path class="st2" d="M32.9,22.1c-0.1-0.1-0.2-0.3-0.1-0.5c0-0.1,0-0.2,0.1-0.3c0-0.1,0.1-0.1,0.1,0c0.1,0.2,0.1,0.3,0.1,0.5
		C33,22,33,22.1,32.9,22.1z"/>
	<path class="st2" d="M28.6,21.4c0.1,0.1,0.1,0.2,0.1,0.3c0,0.2,0,0.3,0,0.4c0,0,0,0,0,0.1c0,0.1-0.1,0.1-0.1,0
		c-0.1-0.1-0.1-0.3-0.1-0.4C28.5,21.6,28.5,21.5,28.6,21.4z"/>
</g>
<g>
	<path class="st3" d="M20.8,15.3c-0.3-0.1-0.6-0.3-0.9-0.4c-0.3-0.1-0.6-0.2-1-0.3c-0.5-0.2-1-0.3-1.5-0.5c-0.4-0.2-0.8-0.4-1-0.8
		c-0.1-0.2-0.3-0.4-0.4-0.6c-0.1-0.3-0.1-0.6-0.1-0.9c0.1-0.4,0.2-0.7,0.5-1c0.2-0.2,0.4-0.3,0.6-0.4c0.4-0.1,0.7-0.1,1.1,0
		c0.1,0,0.2,0.1,0.4,0.2c0,0,0,0,0,0c0-0.1,0.1-0.3,0.1-0.4c0.1-0.4,0.4-0.6,0.7-0.8c0.5-0.3,1-0.3,1.6-0.1c0.4,0.2,0.7,0.5,0.9,0.9
		c0.1,0.4,0.2,0.7,0.2,1.1c0,0.4-0.1,0.7-0.3,1.1c-0.2,0.4-0.4,0.8-0.5,1.3C21.1,14.3,20.9,14.8,20.8,15.3
		C20.8,15.3,20.8,15.3,20.8,15.3z M20.7,15.1C20.7,15.1,20.7,15,20.7,15.1c0.1-0.4,0.2-0.8,0.3-1.1c0.1-0.3,0.3-0.6,0.4-0.9
		c0.2-0.4,0.3-0.8,0.4-1.2c0.1-0.5,0.1-1,0-1.4c-0.1-0.4-0.3-0.6-0.7-0.8c-0.6-0.3-1.1-0.3-1.6,0.1c-0.4,0.3-0.6,0.6-0.6,1.1
		c0,0.1,0,0.2,0,0.3c0,0,0,0,0,0c0,0,0,0,0,0c-0.2-0.1-0.3-0.3-0.5-0.3c-0.5-0.2-0.9-0.1-1.4,0.2c-0.4,0.3-0.6,0.6-0.7,1.1
		c0,0.4,0.1,0.8,0.3,1.1c0.2,0.3,0.5,0.5,0.8,0.7c0.4,0.2,0.8,0.3,1.1,0.5c0.3,0.1,0.7,0.2,1,0.3c0.3,0.1,0.6,0.2,1,0.4
		C20.5,15,20.6,15,20.7,15.1z"/>
</g>
<g>
	<path class="st3" d="M27.4,9.5c-0.3-0.2-0.5-0.4-0.7-0.6c-0.3-0.2-0.6-0.4-0.9-0.5c-0.4-0.3-0.9-0.5-1.3-0.8
		c-0.4-0.3-0.6-0.6-0.8-1c-0.1-0.2-0.2-0.5-0.2-0.7c0-0.3,0-0.6,0.1-0.9c0.1-0.4,0.4-0.6,0.7-0.8c0.2-0.1,0.4-0.2,0.7-0.2
		c0.4,0,0.7,0,1.1,0.3c0.1,0.1,0.2,0.2,0.3,0.2c0,0,0,0,0,0c0.1-0.1,0.1-0.3,0.2-0.4c0.2-0.3,0.5-0.5,0.9-0.6
		c0.6-0.2,1.1-0.1,1.6,0.3c0.4,0.3,0.6,0.6,0.6,1.1c0.1,0.4,0,0.8-0.1,1.1S29.2,6.7,29,7c-0.3,0.4-0.5,0.7-0.8,1.1
		C27.8,8.5,27.6,9,27.4,9.5C27.4,9.5,27.4,9.5,27.4,9.5z M27.3,9.2C27.3,9.2,27.3,9.2,27.3,9.2c0.2-0.4,0.4-0.7,0.6-1
		c0.2-0.3,0.4-0.5,0.6-0.8c0.2-0.3,0.5-0.7,0.7-1c0.2-0.4,0.4-0.9,0.3-1.4c0-0.4-0.2-0.7-0.5-0.9c-0.5-0.4-1-0.5-1.6-0.3
		c-0.4,0.2-0.7,0.5-0.9,0.9c0,0.1,0,0.2-0.1,0.3c0,0,0,0,0,0c0,0,0,0,0,0c-0.1-0.2-0.3-0.3-0.5-0.4c-0.4-0.3-0.9-0.3-1.4-0.1
		c-0.4,0.2-0.7,0.5-0.9,0.9c-0.1,0.4-0.1,0.7,0,1.1C23.8,6.7,24,7,24.3,7.2c0.3,0.3,0.7,0.5,1,0.7c0.3,0.2,0.6,0.4,0.9,0.5
		C26.5,8.6,26.8,8.8,27,9C27.1,9.1,27.2,9.2,27.3,9.2z"/>
</g>
<g>
	<path class="st3" d="M35.2,10.5c-0.1-0.3-0.2-0.6-0.3-0.9c-0.1-0.3-0.3-0.6-0.5-0.9c-0.3-0.5-0.5-0.9-0.8-1.4
		c-0.2-0.4-0.3-0.8-0.3-1.3c0-0.2,0.1-0.5,0.2-0.7c0.1-0.3,0.3-0.5,0.5-0.7c0.3-0.2,0.6-0.4,1-0.4c0.2,0,0.5,0,0.7,0.1
		c0.4,0.1,0.6,0.4,0.8,0.7c0.1,0.1,0.1,0.2,0.1,0.4c0,0,0,0,0,0c0.1-0.1,0.3-0.2,0.4-0.2c0.3-0.2,0.7-0.2,1.1-0.1
		c0.6,0.1,1,0.5,1.2,1c0.2,0.4,0.2,0.8,0,1.2c-0.1,0.4-0.3,0.7-0.6,0.9c-0.3,0.3-0.6,0.4-1,0.6c-0.4,0.2-0.8,0.4-1.3,0.6
		C36.1,9.9,35.6,10.2,35.2,10.5C35.2,10.5,35.2,10.5,35.2,10.5z M35.3,10.3C35.3,10.2,35.3,10.2,35.3,10.3c0.3-0.3,0.6-0.5,1-0.6
		c0.3-0.1,0.6-0.3,0.9-0.4c0.4-0.2,0.8-0.3,1.1-0.6c0.4-0.3,0.8-0.6,1-1.1c0.1-0.3,0.2-0.7,0.1-1c-0.2-0.6-0.6-1-1.3-1.1
		c-0.5-0.1-0.9,0.1-1.2,0.4c-0.1,0.1-0.1,0.1-0.2,0.2c0,0,0,0,0,0c0,0,0,0,0,0c0-0.2-0.1-0.4-0.2-0.6c-0.2-0.5-0.6-0.7-1.1-0.8
		c-0.5-0.1-0.9,0-1.2,0.4c-0.3,0.3-0.5,0.6-0.5,1c-0.1,0.4,0,0.7,0.1,1.1c0.1,0.4,0.3,0.8,0.5,1.1c0.2,0.3,0.4,0.6,0.5,0.9
		c0.2,0.3,0.3,0.6,0.4,0.9C35.2,10,35.2,10.1,35.3,10.3z"/>
</g>
<g>
	<path class="st3" d="M41.5,16.4c-0.1-0.3-0.1-0.6-0.2-0.9c-0.1-0.3-0.2-0.6-0.4-1c-0.2-0.5-0.4-0.9-0.6-1.4
		c-0.1-0.4-0.2-0.8-0.1-1.3c0-0.2,0.1-0.5,0.3-0.7c0.2-0.3,0.3-0.5,0.6-0.6c0.3-0.2,0.7-0.3,1-0.2c0.2,0,0.5,0.1,0.7,0.2
		c0.3,0.2,0.6,0.5,0.7,0.8c0,0.1,0.1,0.3,0.1,0.4c0,0,0,0,0,0c0.1-0.1,0.3-0.1,0.4-0.2c0.3-0.1,0.7-0.1,1.1,0
		c0.6,0.2,0.9,0.6,1.1,1.2c0.1,0.4,0.1,0.8-0.1,1.2c-0.2,0.3-0.4,0.6-0.7,0.8c-0.3,0.2-0.7,0.4-1,0.5c-0.4,0.1-0.9,0.3-1.3,0.4
		C42.5,15.9,42,16.1,41.5,16.4C41.5,16.4,41.5,16.4,41.5,16.4z M41.6,16.2C41.6,16.2,41.6,16.2,41.6,16.2c0.4-0.2,0.7-0.4,1-0.5
		c0.3-0.1,0.6-0.2,1-0.3c0.4-0.1,0.8-0.2,1.2-0.4c0.5-0.2,0.8-0.5,1.1-0.9c0.2-0.3,0.3-0.7,0.2-1c-0.1-0.6-0.5-1-1.1-1.2
		c-0.5-0.1-0.9,0-1.3,0.2c-0.1,0.1-0.2,0.1-0.2,0.2c0,0,0,0,0,0c0,0,0,0,0,0c0-0.2,0-0.4-0.1-0.6c-0.2-0.5-0.5-0.8-1-0.9
		c-0.4-0.1-0.9-0.1-1.3,0.2c-0.3,0.2-0.5,0.5-0.7,0.9c-0.1,0.4-0.1,0.7-0.1,1.1c0.1,0.4,0.2,0.8,0.4,1.2c0.1,0.3,0.3,0.6,0.4,1
		c0.1,0.3,0.2,0.6,0.3,1C41.5,16,41.6,16.1,41.6,16.2z"/>
</g>
</svg>
