<?xml version="1.0" encoding="utf-8"?>
<!-- Generator: Adobe Illustrator 24.0.2, SVG Export Plug-In . SVG Version: 6.00 Build 0)  -->
<svg version="1.1" id="Calque_1" xmlns="http://www.w3.org/2000/svg" xmlns:xlink="http://www.w3.org/1999/xlink" x="0px" y="0px"
	 viewBox="0 0 242.4 65.8" style="enable-background:new 0 0 242.4 65.8;" xml:space="preserve">
<g>
	<path d="M19.7,3.8c0.6,0,1.1-0.2,1.4-0.5c0.4-0.3,0.5-0.8,0.5-1.3c0-0.6-0.2-1-0.5-1.4C20.7,0.2,20.3,0,23,0H5.4
		C1.4,0,1,0.2,0.6,0.6C0.2,1,0,1.4,0,2v26.4c0,0.6,0.2,1.1,0.6,1.4C1,30.3,1.4,30.5,2,30.5h17.6c0.6,0,1.1-0.2,1.4-0.5
		c0.4-0.3,0.5-0.8,0.5-1.4c0-0.6-0.2-1-0.5-1.3c-0.4-0.3-0.8-0.5-1.4-0.5H4.1V17h11.2c0.6,0,1-0.2,1.4-0.5s0.6-0.8,0.6-1.3
		s-0.2-1-0.6-1.3s-0.9-0.5-1.4-0.5H4.1V3.8L19.7,3.8L19.7,3.8z"/>
	<path d="M38.4,17.4v11.2c0,0.6,0.2,1.1,0.6,1.4c0.4,0.4,0.8,0.6,1.4,0.6c0.6,0,1.1-0.2,1.4-0.6s0.5-0.8,0.5-1.4v-11
		c0-1.5,0.4-2.7,1.3-3.6s2-1.4,3.3-1.4c1.3,0,2.4,0.4,3.2,1.2s1.2,2,1.2,3.6v11.2c0,0.6,0.2,1.1,0.6,1.4s0.8,0.6,1.4,0.6
		c0.6,0,1.1-0.2,1.4-0.6s0.6-0.8,0.6-1.4V17.4c0-2.7-0.7-4.7-2.1-6.2S50.1,9,47.8,9c-1.4,0-2.7,0.3-3.9,0.8S41.8,11.1,41,12
		c-0.7-1-1.5-1.8-2.6-2.3S36.2,9,34.8,9c-1.1,0-2.1,0.2-3,0.6c-0.9,0.4-1.7,0.9-2.4,1.6c0-0.6-0.2-1-0.6-1.4
		c-0.4-0.3-0.8-0.5-1.4-0.5s-1,0.2-1.4,0.5c-0.4,0.4-0.6,0.8-0.6,1.4v17.3c0,0.6,0.2,1.1,0.6,1.4c0.4,0.4,0.8,0.6,1.4,0.6
		c0.6,0,1.1-0.2,1.4-0.6c0.4-0.4,0.5-0.8,0.5-1.4v-11c0-1.5,0.4-2.7,1.3-3.6c0.9-0.9,2-1.4,3.4-1.4c1.3,0,2.4,0.4,3.2,1.2
		C38,14.6,38.4,15.8,38.4,17.4z"/>
	<path d="M75.2,29.2c1.5-0.9,2.7-2.2,3.6-3.9c0.9-1.7,1.3-3.5,1.3-5.5s-0.5-3.9-1.4-5.5c-0.9-1.7-2.2-3-3.9-3.9
		c-1.7-1-3.5-1.4-5.5-1.4s-3.8,0.5-5.4,1.4c-1.6,1-2.9,2.3-3.9,3.9s-1.4,3.5-1.4,5.5v16.9c0,0.3-0.1,0.7,0,1.3c0,0.7,0,1.2-0.1,1.6
		c-0.2,0.8-0.6,1.7-1.4,2.8c-0.1,0.1-0.2,0.3-0.2,0.4c-0.1,0.3,0,0.5,0.1,0.8s0.3,0.4,0.6,0.4c0.4,0.1,1-0.2,1.7-0.8
		c0.7-0.6,1.3-1.4,2-2.4c0.5-0.8,0.9-1.6,1.1-2.2c0.1-0.3,0.2-0.6,0.2-0.9V27.1c0.9,1.1,2,2,3.3,2.6c1.3,0.6,2.7,0.9,4.2,0.9
		C72,30.7,73.7,30.2,75.2,29.2z M65.8,26.2c-1.1-0.6-1.9-1.5-2.5-2.6c-0.6-1.1-0.9-2.3-0.9-3.7c0-1.4,0.3-2.6,0.9-3.7
		c0.6-1.1,1.4-2,2.5-2.6c1.1-0.6,2.2-1,3.5-1c1.3,0,2.5,0.3,3.5,1c1.1,0.6,1.9,1.5,2.5,2.6c0.6,1.1,0.9,2.4,0.9,3.7
		c0,1.4-0.3,2.6-0.9,3.7c-0.6,1.1-1.4,2-2.5,2.6c-1.1,0.6-2.2,1-3.5,1C68,27.1,66.8,26.8,65.8,26.2z"/>
	<path d="M95.3,12.7c0.3,0,0.4,0.1,0.6,0.1c0.8,0,1.3-0.4,1.6-1.3c0-0.1,0-0.2,0-0.4c0-0.6-0.4-1.1-1.2-1.6
		c-0.8-0.4-1.9-0.6-3.2-0.6c-1.3,0-2.5,0.3-3.7,0.8c-1.1,0.5-2.1,1.2-2.9,2.2v-0.7c0-1.3-0.7-2-1.9-2c-0.6,0-1.1,0.2-1.4,0.5
		c-0.3,0.3-0.5,0.8-0.5,1.4v17.4c0,0.7,0.2,1.1,0.5,1.5c0.3,0.3,0.8,0.5,1.4,0.5c0.7,0,1.1-0.2,1.5-0.5c0.3-0.3,0.5-0.8,0.5-1.4
		V17.2c0-1.5,0.6-2.6,1.7-3.5c1.1-0.9,2.7-1.3,4.5-1.3C93.4,12.4,94.3,12.5,95.3,12.7z"/>
	<path d="M117,9c-0.6,0-1.1,0.2-1.4,0.5c-0.4,0.4-0.6,0.8-0.6,1.4v11c0,0.9-0.3,1.8-0.8,2.5s-1.2,1.3-2.1,1.8s-1.9,0.7-3,0.7
		c-1.9,0-3.4-0.5-4.5-1.6s-1.7-2.7-1.7-4.8V11c0-0.6-0.2-1-0.6-1.4C102,9.2,101.6,9,101,9s-1.1,0.2-1.4,0.6C99.2,10,99,10.4,99,11
		v9.6c0,2.1,0.4,3.9,1.2,5.4c0.8,1.5,1.9,2.6,3.3,3.4c1.4,0.8,3,1.2,4.8,1.2c1.3,0,2.5-0.2,3.7-0.7c1.1-0.4,2.1-1.1,3-1.9v0.4
		c0,0.6,0.2,1.1,0.6,1.4c0.4,0.4,0.9,0.6,1.4,0.6c0.6,0,1.1-0.2,1.4-0.6s0.6-0.8,0.6-1.4V11c0-0.6-0.2-1.1-0.6-1.4
		C118.1,9.2,117.6,9,117,9z"/>
	<path d="M138.7,18.8v9.6c0,0.6,0.2,1.1,0.6,1.4s0.9,0.6,1.4,0.6c0.6,0,1.1-0.2,1.4-0.6s0.6-0.8,0.6-1.4v-9.6c0-2.1-0.4-3.9-1.2-5.4
		s-1.9-2.6-3.4-3.4c-1.4-0.8-3-1.2-4.8-1.2c-1.3,0-2.5,0.2-3.7,0.7c-1.1,0.5-2.1,1.1-3,1.9V11c0-0.6-0.2-1.1-0.6-1.4
		c-0.4-0.4-0.9-0.5-1.4-0.5c-0.6,0-1.1,0.2-1.4,0.5c-0.4,0.4-0.6,0.8-0.6,1.4v17.4c0,0.6,0.2,1.1,0.6,1.4c0.4,0.4,0.9,0.6,1.4,0.6
		c0.6,0,1.1-0.2,1.4-0.6s0.6-0.8,0.6-1.4v-11c0-0.9,0.3-1.8,0.8-2.5s1.2-1.3,2.1-1.8c0.9-0.4,1.9-0.7,3-0.7c1.9,0,3.4,0.5,4.5,1.6
		C138.1,15.2,138.7,16.7,138.7,18.8z"/>
	<path d="M156.1,28.4c0-0.6-0.2-1-0.5-1.4s-0.7-0.6-1.2-0.6h-1.3c-0.8,0-1.5-0.3-2.1-1.1c-0.6-0.7-0.9-1.6-0.9-2.6v-9.6h3.3
		c0.6,0,1-0.2,1.3-0.5s0.5-0.7,0.5-1.2c0-0.5-0.2-0.9-0.5-1.3s-0.8-0.5-1.3-0.5h-3.3V4.2c0-0.6-0.2-1-0.6-1.4
		c-0.4-0.4-0.8-0.5-1.4-0.5c-0.6,0-1,0.2-1.4,0.5c-0.4,0.4-0.6,0.8-0.6,1.4v5.6h-1.8c-0.6,0-1,0.2-1.3,0.5s-0.5,0.7-0.5,1.3
		c0,0.5,0.2,0.9,0.5,1.2s0.8,0.5,1.3,0.5h1.8v9.6c0,1.4,0.3,2.7,0.9,3.9c0.6,1.1,1.4,2.1,2.5,2.7c1.1,0.7,2.2,1,3.5,1h0.7
		c0.7,0,1.2-0.2,1.7-0.6C155.9,29.5,156.1,29,156.1,28.4z"/>
	<path d="M174.9,27c0-0.5-0.2-0.9-0.7-1.3c-0.3-0.3-0.7-0.4-1.2-0.4s-0.9,0.1-1.3,0.4c-0.6,0.4-1.2,0.8-2.1,1.1
		c-0.9,0.3-1.7,0.4-2.4,0.4c-2,0-3.6-0.6-5-1.7c-1.4-1.1-2.2-2.6-2.5-4.4h14.8c0.5,0,0.9-0.2,1.3-0.5c0.3-0.3,0.5-0.7,0.5-1.2
		c0-2-0.4-3.9-1.2-5.5s-1.9-2.8-3.4-3.7c-1.5-0.9-3.2-1.3-5.2-1.3c-2,0-3.8,0.5-5.4,1.4c-1.6,0.9-2.9,2.2-3.7,3.9
		c-0.9,1.7-1.4,3.5-1.4,5.6s0.5,3.9,1.4,5.6s2.3,2.9,4,3.8s3.6,1.4,5.7,1.4c1.2,0,2.4-0.2,3.8-0.7s2.4-1,3.3-1.7
		C174.7,27.9,174.9,27.5,174.9,27z M162.1,13.8c1.2-1,2.7-1.6,4.6-1.6c1.7,0,3.1,0.5,4.2,1.6c1.1,1,1.7,2.4,1.9,4.2h-13
		C160.1,16.3,160.9,14.9,162.1,13.8z"/>
	<path d="M51.7,35.2c-0.6,0-1,0.2-1.4,0.6c-0.4,0.4-0.6,0.8-0.6,1.4v10.5c-0.9-1.1-2-2-3.3-2.6s-2.7-0.9-4.2-0.9
		c-1.9,0-3.6,0.5-5.1,1.4s-2.7,2.2-3.6,3.9c-0.9,1.7-1.3,3.5-1.3,5.5s0.5,3.9,1.4,5.5c0.9,1.7,2.2,2.9,3.9,3.9
		c1.7,0.9,3.5,1.4,5.5,1.4s3.8-0.5,5.4-1.4c1.6-0.9,2.9-2.3,3.9-3.9c0.9-1.7,1.4-3.5,1.4-5.5V37.2c0-0.6-0.2-1.1-0.6-1.4
		C52.7,35.3,52.3,35.2,51.7,35.2z M48.9,58.7c-0.6,1.1-1.4,2-2.5,2.6c-1,0.6-2.2,1-3.5,1s-2.5-0.3-3.5-1s-1.9-1.5-2.5-2.6
		c-0.6-1.1-0.9-2.4-0.9-3.7s0.3-2.6,0.9-3.7c0.6-1.1,1.4-2,2.5-2.6c1-0.6,2.2-1,3.5-1s2.5,0.3,3.5,1s1.9,1.5,2.5,2.6
		c0.6,1.1,0.9,2.3,0.9,3.7S49.5,57.6,48.9,58.7z"/>
	<path d="M81.4,44.3c-0.6,0-1.1,0.2-1.4,0.6c-0.4,0.4-0.6,0.8-0.6,1.4v11c0,0.9-0.3,1.8-0.8,2.5c-0.5,0.8-1.2,1.3-2.1,1.8
		s-1.9,0.7-3,0.7c-1.9,0-3.4-0.5-4.5-1.6s-1.7-2.7-1.7-4.8v-9.6c0-0.6-0.2-1.1-0.6-1.4c-0.4-0.4-0.8-0.6-1.4-0.6s-1.1,0.2-1.4,0.6
		c-0.4,0.4-0.6,0.8-0.6,1.4v9.6c0,2.1,0.4,3.9,1.2,5.4c0.8,1.5,1.9,2.6,3.3,3.4c1.4,0.8,3,1.2,4.8,1.2c1.3,0,2.5-0.2,3.7-0.7
		c1.1-0.4,2.1-1.1,3-1.9v0.4c0,0.6,0.2,1.1,0.6,1.4c0.4,0.4,0.8,0.6,1.4,0.6c0.6,0,1.1-0.2,1.4-0.6s0.6-0.8,0.6-1.4V46.2
		c0-0.6-0.2-1.1-0.6-1.4C82.5,44.4,82,44.3,81.4,44.3z"/>
	<path d="M102.5,45.3c-1.4-0.8-3-1.2-4.8-1.2c-1.3,0-2.5,0.2-3.7,0.7c-1.1,0.5-2.1,1.1-3,1.9v-0.4c0-0.6-0.2-1.1-0.6-1.4
		c-0.4-0.4-0.8-0.6-1.4-0.6c-0.6,0-1.1,0.2-1.4,0.6c-0.4,0.4-0.6,0.8-0.6,1.4v17.4c0,0.6,0.2,1.1,0.6,1.4c0.4,0.4,0.8,0.6,1.4,0.6
		c0.6,0,1.1-0.2,1.4-0.6s0.6-0.8,0.6-1.4v-11c0-0.9,0.3-1.8,0.8-2.5s1.2-1.3,2.1-1.8s1.9-0.7,3-0.7c1.9,0,3.4,0.5,4.5,1.6
		s1.7,2.7,1.7,4.8v9.6c0,0.6,0.2,1.1,0.6,1.4c0.4,0.4,0.8,0.6,1.4,0.6s1.1-0.2,1.4-0.6c0.4-0.4,0.6-0.8,0.6-1.4v-9.6
		c0-2.1-0.4-3.9-1.2-5.4C105,47.2,103.9,46.1,102.5,45.3z"/>
	<path d="M125.9,61.7h-1c-0.6,0-1-0.3-1.4-0.9s-0.6-1.4-0.6-2.4V37.1c0-0.6-0.2-1-0.6-1.4c-0.4-0.4-0.8-0.6-1.4-0.6
		c-0.6,0-1,0.2-1.4,0.6c-0.4,0.4-0.6,0.8-0.6,1.4v21.3c0,1.4,0.3,2.6,0.7,3.7c0.5,1.1,1.2,2,2.1,2.6s1.9,0.9,3,0.9h0.1
		c0.8,0,1.4-0.2,1.9-0.6c0.5-0.4,0.7-0.8,0.7-1.4s-0.2-1-0.5-1.4S126.4,61.7,125.9,61.7z"/>
	<path d="M143.3,45.5c-1.5-0.9-3.2-1.3-5.2-1.3c-2,0-3.8,0.5-5.4,1.4s-2.9,2.2-3.7,3.9c-0.9,1.7-1.4,3.5-1.4,5.6s0.5,3.9,1.4,5.6
		s2.3,2.9,4,3.8s3.6,1.4,5.7,1.4c1.2,0,2.4-0.2,3.8-0.7s2.4-1,3.3-1.7c0.4-0.3,0.6-0.7,0.6-1.2c0-0.5-0.2-0.9-0.7-1.3
		c-0.3-0.3-0.7-0.4-1.2-0.4s-0.9,0.1-1.3,0.4c-0.6,0.4-1.2,0.8-2.1,1.1c-0.9,0.3-1.7,0.4-2.4,0.4c-2,0-3.6-0.6-5-1.7
		c-1.4-1.1-2.2-2.6-2.5-4.4H146c0.5,0,0.9-0.2,1.3-0.5c0.3-0.3,0.5-0.7,0.5-1.2c0-2.1-0.4-3.9-1.2-5.5
		C145.9,47.6,144.8,46.3,143.3,45.5z M131.3,53.2c0.3-1.7,1.1-3.1,2.2-4.2c1.2-1,2.7-1.6,4.6-1.6c1.7,0,3.1,0.5,4.2,1.6
		c1.1,1,1.7,2.4,1.9,4.2H131.3z"/>
	<path d="M160,47.7c1,0,1.9,0.2,2.6,0.5c0.8,0.3,1.5,0.8,2.1,1.5c0.4,0.5,0.9,0.7,1.5,0.7c0.3,0,0.6-0.1,0.9-0.3
		c0.6-0.4,0.9-0.9,0.9-1.4c0-0.4-0.1-0.7-0.4-1c-2-2.3-4.6-3.5-7.6-3.5c-2,0-3.9,0.5-5.5,1.4s-2.9,2.2-3.8,3.9
		c-0.9,1.7-1.4,3.5-1.4,5.6c0,2,0.5,3.9,1.4,5.5c0.9,1.7,2.2,2.9,3.8,3.9c1.6,0.9,3.5,1.4,5.5,1.4c2.8,0,5.1-0.9,7-2.6
		c0.3-0.3,0.5-0.7,0.5-1.1c0-0.5-0.3-1-0.7-1.4c-0.3-0.2-0.6-0.3-1-0.3c-0.5,0-0.9,0.2-1.4,0.6c-1.1,0.9-2.5,1.4-4.3,1.4
		c-1.4,0-2.6-0.3-3.6-0.9c-1.1-0.6-1.9-1.5-2.5-2.6c-0.6-1.1-0.9-2.4-0.9-3.8c0-2.2,0.6-4,1.9-5.3C156.3,48.3,158,47.7,160,47.7z"/>
	<path d="M181.7,61.7h-1.3c-0.8,0-1.5-0.3-2.1-1.1c-0.6-0.7-0.9-1.6-0.9-2.6v-9.6h3.3c0.6,0,1-0.2,1.3-0.5s0.5-0.7,0.5-1.2
		c0-0.5-0.2-0.9-0.5-1.3s-0.8-0.5-1.3-0.5h-3.3v-5.6c0-0.6-0.2-1-0.6-1.4c-0.4-0.4-0.8-0.6-1.4-0.6c-0.6,0-1,0.2-1.4,0.6
		c-0.4,0.4-0.6,0.8-0.6,1.4v5.6h-1.8c-0.6,0-1,0.2-1.3,0.5s-0.5,0.7-0.5,1.3c0,0.5,0.2,0.9,0.5,1.2s0.8,0.5,1.3,0.5h1.8v9.6
		c0,1.4,0.3,2.7,0.9,3.9c0.6,1.1,1.4,2.1,2.5,2.7c1.1,0.7,2.2,1,3.5,1h0.7c0.7,0,1.2-0.2,1.7-0.6c0.4-0.4,0.6-0.8,0.6-1.4
		s-0.2-1-0.5-1.4S182.1,61.7,181.7,61.7z"/>
	<path d="M199.1,45.5c-1.5-0.9-3.2-1.3-5.2-1.3c-2,0-3.8,0.5-5.4,1.4s-2.9,2.2-3.7,3.9c-0.9,1.7-1.4,3.5-1.4,5.6s0.5,3.9,1.4,5.6
		s2.3,2.9,4,3.8s3.6,1.4,5.7,1.4c1.2,0,2.4-0.2,3.8-0.7s2.4-1,3.3-1.7c0.4-0.3,0.6-0.7,0.6-1.2c0-0.5-0.2-0.9-0.7-1.3
		c-0.3-0.3-0.7-0.4-1.2-0.4s-0.9,0.1-1.3,0.4c-0.6,0.4-1.2,0.8-2.1,1.1c-0.9,0.3-1.7,0.4-2.4,0.4c-2,0-3.6-0.6-5-1.7
		c-1.4-1.1-2.2-2.6-2.5-4.4h14.8c0.5,0,0.9-0.2,1.3-0.5c0.3-0.3,0.5-0.7,0.5-1.2c0-2.1-0.4-3.9-1.2-5.5
		C201.6,47.6,200.5,46.3,199.1,45.5z M187,53.2c0.3-1.7,1.1-3.1,2.2-4.2c1.2-1,2.7-1.6,4.6-1.6c1.7,0,3.1,0.5,4.2,1.6
		c1.1,1,1.7,2.4,1.9,4.2H187z"/>
	<path d="M223.5,44.3c-0.6,0-1.1,0.2-1.4,0.6c-0.4,0.4-0.6,0.8-0.6,1.4v11c0,0.9-0.3,1.8-0.8,2.5s-1.2,1.3-2.1,1.8s-1.9,0.7-3,0.7
		c-1.9,0-3.4-0.5-4.5-1.6s-1.7-2.7-1.7-4.8v-9.6c0-0.6-0.2-1.1-0.6-1.4c-0.4-0.4-0.9-0.6-1.4-0.6c-0.6,0-1.1,0.2-1.4,0.6
		c-0.4,0.4-0.6,0.8-0.6,1.4v9.6c0,2.1,0.4,3.9,1.2,5.4c0.8,1.5,1.9,2.6,3.4,3.4s3,1.2,4.8,1.2c1.3,0,2.5-0.2,3.7-0.7
		c1.1-0.4,2.1-1.1,3-1.9v0.4c0,0.6,0.2,1.1,0.6,1.4c0.4,0.4,0.9,0.6,1.4,0.6c0.6,0,1.1-0.2,1.4-0.6s0.6-0.8,0.6-1.4V46.2
		c0-0.6-0.2-1.1-0.6-1.4C224.6,44.4,224.1,44.3,223.5,44.3z"/>
	<path d="M241.3,44.7c-0.8-0.4-1.9-0.6-3.2-0.6c-1.3,0-2.5,0.3-3.7,0.8c-1.1,0.5-2.1,1.2-2.9,2.2v-0.7c0-1.3-0.6-1.9-1.9-1.9
		c-0.6,0-1.1,0.2-1.4,0.5c-0.3,0.3-0.5,0.8-0.5,1.4v17.4c0,0.7,0.2,1.1,0.5,1.5s0.8,0.5,1.4,0.5c0.6,0,1.1-0.2,1.5-0.5
		c0.3-0.3,0.5-0.8,0.5-1.4V52.3c0-1.5,0.6-2.6,1.7-3.5c1.1-0.9,2.6-1.3,4.5-1.3c0.6,0,1.5,0.1,2.5,0.3c0.3,0.1,0.5,0.1,0.6,0.1
		c0.8,0,1.3-0.4,1.6-1.3c0-0.1,0-0.2,0-0.4C242.5,45.6,242.1,45.1,241.3,44.7z"/>
</g>
</svg>
